<?xml version="1.0" encoding="UTF-8"?>
<svg width="1534px" height="241px" viewBox="0 0 1534 241" version="1.1" xmlns="http://www.w3.org/2000/svg" xmlns:xlink="http://www.w3.org/1999/xlink">
    <title>LogoSQ-Navy</title>
    <g id="Logo-Final" stroke="none" stroke-width="1" fill="none" fill-rule="evenodd">
        <g id="Katanox-Logo" transform="translate(-3183.000000, -1093.000000)" fill-rule="nonzero">
            <g id="LogoSQ-Navy" transform="translate(3183.000000, 1093.000000)">
                <g id="Group-Copy" transform="translate(365.000000, 40.000000)" fill="#001C2C">
                    <path d="M228.873174,0 C251.229668,0 266.837176,8.15573911 277.991106,22.8460618 L278.554428,23.5986511 L278.815421,23.9557245 L278.815421,4.1889331 L320.120785,4.1889331 L320.120785,156.811067 L278.815421,156.811067 L278.815421,137.042168 L278.554428,137.401349 C267.740525,152.055625 252.662867,160.425243 231.142738,160.971463 L230.00414,160.992979 L228.873174,161 C190.147028,161 159.761261,127.658992 159.761261,80.5 C159.761261,33.3410078 190.147028,0 228.873174,0 Z M540.020027,0 C562.376521,0 577.984029,8.15573911 589.137959,22.8460618 L589.701281,23.5986511 L589.962274,23.9557245 L589.962274,4.1889331 L631.267638,4.1889331 L631.267638,156.811067 L589.962274,156.811067 L589.962274,137.042168 L589.701281,137.401349 C578.887378,152.055625 563.80972,160.425243 542.289592,160.971463 L541.150993,160.992979 L540.020027,161 C501.293882,161 470.908114,127.658992 470.908114,80.5 C470.908114,33.3410078 501.293882,0 540.020027,0 Z M915.180926,0 C961.98471,0 995.061557,32.1961261 995.061557,80.5 C995.061557,128.803874 961.98471,161 915.180926,161 C868.377142,161 835.300295,128.803874 835.300295,80.5 C835.300295,32.1961261 868.377142,0 915.180926,0 Z M999.678743,4.1889331 L1048.53325,4.1889331 L1083.53273,55.3537588 L1084.30162,55.3537588 L1119.29898,4.1889331 L1168.1535,4.1889331 L1114.61286,79.9036881 L1168.74074,156.811067 L1118.98719,156.811067 L1084.29109,105.047822 L1083.54326,105.047822 L1048.84505,156.811067 L999.091497,156.811067 L1053.22148,79.9036881 L999.678743,4.1889331 Z M41.9036262,4.1889331 L41.9036262,56.0786043 L100.620795,4.1889331 L162.766532,4.1889331 L90.2512094,66.1400508 L160.144196,156.811067 L108.437485,156.811067 L60.09585,91.941603 L41.9036262,107.502604 L41.9036262,156.811067 L0,156.811067 L0,4.1889331 L41.9036262,4.1889331 Z M417.064525,4.18682599 L457.746348,4.1889331 L457.746348,38.9225212 L417.064525,38.9225212 L417.064525,115.208303 C417.064525,119.650546 418.801078,121.780056 422.496478,122.048311 L422.899919,122.069951 L423.333638,122.077479 L454.156775,122.077479 L454.156775,156.811067 L410.171871,156.811067 C389.419451,156.811067 375.487759,142.939248 375.166572,121.936709 L375.160899,121.192493 L375.160899,38.9225212 L338.068648,38.9225212 L338.068648,4.1889331 L375.160899,4.18682599 L417.064525,4.18682599 Z M752.727485,1.79525704 C788.074695,1.79525704 812.082486,27.4713065 812.559107,64.997183 L812.566335,66.1379437 L812.566335,156.811067 L770.662709,156.811067 L770.662709,67.9332007 C770.662709,46.9874222 760.557741,36.5288451 741.061374,36.5288451 C719.539494,36.5288451 706.955598,51.3168714 706.678613,77.2286842 L706.673942,78.1063239 L706.673942,156.811067 L664.770316,156.811067 L664.770316,4.1889331 L706.07568,4.1889331 L706.07568,25.5191996 L706.141374,25.3924278 C713.913161,10.9375759 728.160313,2.34360786 750.536605,1.82060092 L751.62568,1.80160228 L752.727485,1.79525704 Z M240.240154,36.5288451 C217.172998,36.5288451 201.664888,53.3203779 201.664888,80.5 C201.664888,107.679622 217.172998,124.471155 240.240154,124.471155 C263.30731,124.471155 278.815421,107.679622 278.815421,80.5 C278.815421,53.3203779 263.30731,36.5288451 240.240154,36.5288451 Z M551.387007,36.5288451 C528.319851,36.5288451 512.811741,53.3203779 512.811741,80.5 C512.811741,107.679622 528.319851,124.471155 551.387007,124.471155 C574.454163,124.471155 589.962274,107.679622 589.962274,80.5 C589.962274,53.3203779 574.454163,36.5288451 551.387007,36.5288451 Z M915.180926,37.1272642 C892.331999,37.1272642 877.203921,53.6928713 877.203921,80.5 C877.203921,107.307129 892.331999,123.872736 915.180926,123.872736 C938.029853,123.872736 953.15793,107.307129 953.15793,80.5 C953.15793,53.6928713 938.029853,37.1272642 915.180926,37.1272642 Z" id="katanox-copy-5"></path>
                </g>
                <g id="Group-3-Copy">
                    <polygon id="Path-Copy-9" fill="#0265FE" transform="translate(114.240260, 120.579375) scale(-1, 1) translate(-114.240260, -120.579375) " points="50.4899359 77.6336092 142.759756 0.601019992 228.480519 0.601019992 86.9397859 120.579375 227.847207 240.55773 142.790956 240.55773 50.4899359 164.196371 6.57941865e-14 120.91499"></polygon>
                    <g id="Group-2" transform="translate(55.294372, 0.601020)" fill="#B3D1FF">
                        <path d="M130.780775,157.307917 L227.847207,239.95671 L142.790956,239.95671 L86.9685301,193.773931 L130.780775,157.307917 Z M228.480519,2.90043545e-11 L43.156285,157.307917 L0,120.31397 L142.759756,2.90043545e-11 L228.480519,2.90043545e-11 Z" id="Combined-Shape"></path>
                    </g>
                </g>
            </g>
        </g>
    </g>
</svg>